<mxfile host="app.diagrams.net" agent="Mozilla/5.0 (Windows NT 10.0; Win64; x64) AppleWebKit/537.36 (KHTML, like Gecko) Chrome/133.0.0.0 Safari/537.36" version="26.1.0">
  <diagram id="prtHgNgQTEPvFCAcTncT" name="Page-1">
    <mxGraphModel dx="724" dy="931" grid="1" gridSize="10" guides="1" tooltips="1" connect="1" arrows="1" fold="1" page="1" pageScale="1" pageWidth="827" pageHeight="1169" math="0" shadow="0">
      <root>
        <mxCell id="0" />
        <mxCell id="1" parent="0" />
        <mxCell id="dNxyNK7c78bLwvsdeMH5-11" value="Package Diagram" style="swimlane;html=1;startSize=20;horizontal=1;containerType=tree;glass=0;" parent="1" vertex="1">
          <mxGeometry x="59" y="90" width="710" height="290" as="geometry" />
        </mxCell>
        <mxCell id="SeNkFIjBgX9nJqlt8MPv-3" style="edgeStyle=none;curved=1;rounded=0;orthogonalLoop=1;jettySize=auto;html=1;exitX=1;exitY=0.75;exitDx=0;exitDy=0;fontSize=12;startSize=8;endSize=8;" edge="1" parent="dNxyNK7c78bLwvsdeMH5-11" source="SeNkFIjBgX9nJqlt8MPv-1" target="SeNkFIjBgX9nJqlt8MPv-2">
          <mxGeometry relative="1" as="geometry" />
        </mxCell>
        <mxCell id="SeNkFIjBgX9nJqlt8MPv-6" style="edgeStyle=none;curved=1;rounded=0;orthogonalLoop=1;jettySize=auto;html=1;exitX=0;exitY=1;exitDx=0;exitDy=0;entryX=1;entryY=0;entryDx=0;entryDy=0;fontSize=12;startSize=8;endSize=8;" edge="1" parent="dNxyNK7c78bLwvsdeMH5-11" source="SeNkFIjBgX9nJqlt8MPv-1" target="SeNkFIjBgX9nJqlt8MPv-4">
          <mxGeometry relative="1" as="geometry" />
        </mxCell>
        <mxCell id="SeNkFIjBgX9nJqlt8MPv-16" style="edgeStyle=none;curved=1;rounded=0;orthogonalLoop=1;jettySize=auto;html=1;exitX=1;exitY=1;exitDx=0;exitDy=0;entryX=0.5;entryY=0;entryDx=0;entryDy=0;fontSize=12;startSize=8;endSize=8;" edge="1" parent="dNxyNK7c78bLwvsdeMH5-11" source="SeNkFIjBgX9nJqlt8MPv-1" target="SeNkFIjBgX9nJqlt8MPv-7">
          <mxGeometry relative="1" as="geometry" />
        </mxCell>
        <mxCell id="SeNkFIjBgX9nJqlt8MPv-1" value="" style="rounded=0;whiteSpace=wrap;html=1;" vertex="1" parent="dNxyNK7c78bLwvsdeMH5-11">
          <mxGeometry x="295" y="35" width="120" height="60" as="geometry" />
        </mxCell>
        <mxCell id="SeNkFIjBgX9nJqlt8MPv-2" value="Final App" style="text;html=1;align=center;verticalAlign=middle;whiteSpace=wrap;rounded=0;" vertex="1" parent="dNxyNK7c78bLwvsdeMH5-11">
          <mxGeometry x="325" y="50" width="60" height="30" as="geometry" />
        </mxCell>
        <mxCell id="SeNkFIjBgX9nJqlt8MPv-20" style="edgeStyle=none;curved=1;rounded=0;orthogonalLoop=1;jettySize=auto;html=1;exitX=1;exitY=1;exitDx=0;exitDy=0;entryX=0;entryY=0;entryDx=0;entryDy=0;fontSize=12;startSize=8;endSize=8;" edge="1" parent="dNxyNK7c78bLwvsdeMH5-11" source="SeNkFIjBgX9nJqlt8MPv-4" target="SeNkFIjBgX9nJqlt8MPv-18">
          <mxGeometry relative="1" as="geometry" />
        </mxCell>
        <mxCell id="SeNkFIjBgX9nJqlt8MPv-4" value="" style="rounded=0;whiteSpace=wrap;html=1;" vertex="1" parent="dNxyNK7c78bLwvsdeMH5-11">
          <mxGeometry x="91" y="130" width="120" height="60" as="geometry" />
        </mxCell>
        <mxCell id="SeNkFIjBgX9nJqlt8MPv-21" style="edgeStyle=none;curved=1;rounded=0;orthogonalLoop=1;jettySize=auto;html=1;exitX=0;exitY=1;exitDx=0;exitDy=0;entryX=1;entryY=0;entryDx=0;entryDy=0;fontSize=12;startSize=8;endSize=8;" edge="1" parent="dNxyNK7c78bLwvsdeMH5-11" source="SeNkFIjBgX9nJqlt8MPv-7" target="SeNkFIjBgX9nJqlt8MPv-18">
          <mxGeometry relative="1" as="geometry" />
        </mxCell>
        <mxCell id="SeNkFIjBgX9nJqlt8MPv-7" value="" style="rounded=0;whiteSpace=wrap;html=1;" vertex="1" parent="dNxyNK7c78bLwvsdeMH5-11">
          <mxGeometry x="501" y="130" width="120" height="60" as="geometry" />
        </mxCell>
        <mxCell id="SeNkFIjBgX9nJqlt8MPv-9" value="" style="endArrow=classic;html=1;rounded=0;fontSize=12;startSize=8;endSize=8;curved=1;entryX=0;entryY=0.5;entryDx=0;entryDy=0;" edge="1" parent="dNxyNK7c78bLwvsdeMH5-11" target="SeNkFIjBgX9nJqlt8MPv-7">
          <mxGeometry width="50" height="50" relative="1" as="geometry">
            <mxPoint x="211" y="160" as="sourcePoint" />
            <mxPoint x="261" y="110" as="targetPoint" />
          </mxGeometry>
        </mxCell>
        <mxCell id="SeNkFIjBgX9nJqlt8MPv-13" value="GUI" style="text;html=1;align=center;verticalAlign=middle;whiteSpace=wrap;rounded=0;" vertex="1" parent="dNxyNK7c78bLwvsdeMH5-11">
          <mxGeometry x="121" y="145" width="60" height="30" as="geometry" />
        </mxCell>
        <mxCell id="SeNkFIjBgX9nJqlt8MPv-14" value="Bussines Logic" style="text;html=1;align=center;verticalAlign=middle;whiteSpace=wrap;rounded=0;" vertex="1" parent="dNxyNK7c78bLwvsdeMH5-11">
          <mxGeometry x="531" y="145" width="60" height="30" as="geometry" />
        </mxCell>
        <mxCell id="SeNkFIjBgX9nJqlt8MPv-18" value="" style="rounded=0;whiteSpace=wrap;html=1;" vertex="1" parent="dNxyNK7c78bLwvsdeMH5-11">
          <mxGeometry x="295" y="210" width="120" height="60" as="geometry" />
        </mxCell>
        <mxCell id="SeNkFIjBgX9nJqlt8MPv-19" value="Data Model" style="text;html=1;align=center;verticalAlign=middle;whiteSpace=wrap;rounded=0;" vertex="1" parent="dNxyNK7c78bLwvsdeMH5-11">
          <mxGeometry x="325" y="225" width="60" height="30" as="geometry" />
        </mxCell>
        <mxCell id="SeNkFIjBgX9nJqlt8MPv-25" value="" style="endArrow=none;dashed=1;html=1;rounded=0;fontSize=12;startSize=8;endSize=8;curved=1;entryX=0.5;entryY=1;entryDx=0;entryDy=0;exitX=0.5;exitY=0;exitDx=0;exitDy=0;" edge="1" parent="dNxyNK7c78bLwvsdeMH5-11" source="SeNkFIjBgX9nJqlt8MPv-18" target="SeNkFIjBgX9nJqlt8MPv-1">
          <mxGeometry width="50" height="50" relative="1" as="geometry">
            <mxPoint x="351" y="210" as="sourcePoint" />
            <mxPoint x="401" y="160" as="targetPoint" />
          </mxGeometry>
        </mxCell>
      </root>
    </mxGraphModel>
  </diagram>
</mxfile>
